<?xml version="1.0" encoding="UTF-8" standalone="no"?>
<!-- Created with Inkscape (http://www.inkscape.org/) -->

<svg
   xmlns:dc="http://purl.org/dc/elements/1.1/"
   xmlns:cc="http://creativecommons.org/ns#"
   xmlns:rdf="http://www.w3.org/1999/02/22-rdf-syntax-ns#"
   xmlns:svg="http://www.w3.org/2000/svg"
   xmlns="http://www.w3.org/2000/svg"
   xmlns:xlink="http://www.w3.org/1999/xlink"
   xmlns:sodipodi="http://sodipodi.sourceforge.net/DTD/sodipodi-0.dtd"
   xmlns:inkscape="http://www.inkscape.org/namespaces/inkscape"
   id="svg3940"
   version="1.1"
   inkscape:version="0.48.3.1 r9886"
   width="175"
   height="218"
   sodipodi:docname="help.svg">
  <metadata
     id="metadata3946">
    <rdf:RDF>
      <cc:Work
         rdf:about="">
        <dc:format>image/svg+xml</dc:format>
        <dc:type
           rdf:resource="http://purl.org/dc/dcmitype/StillImage" />
        <dc:title />
      </cc:Work>
    </rdf:RDF>
  </metadata>
  <defs
     id="defs3944">
    <linearGradient
       id="linearGradient3783">
      <stop
         style="stop-color:#e2e2e2;stop-opacity:1;"
         offset="0"
         id="stop3785" />
      <stop
         style="stop-color:#f4f4f4;stop-opacity:1;"
         offset="1"
         id="stop3787" />
    </linearGradient>
    <linearGradient
       id="linearGradient3775">
      <stop
         style="stop-color:#f4f4f4;stop-opacity:1;"
         offset="0"
         id="stop3777" />
      <stop
         style="stop-color:#e2e2e2;stop-opacity:1;"
         offset="1"
         id="stop3779" />
    </linearGradient>
    <linearGradient
       id="linearGradient3767">
      <stop
         style="stop-color:#e2e2e2;stop-opacity:1;"
         offset="0"
         id="stop3769" />
      <stop
         id="stop3772"
         offset="0.5"
         style="stop-color:#f4f4f4;stop-opacity:1;" />
      <stop
         style="stop-color:#e2e2e2;stop-opacity:1;"
         offset="1"
         id="stop3771" />
    </linearGradient>
    <inkscape:path-effect
       effect="spiro"
       id="path-effect4652"
       is_visible="true" />
    <linearGradient
       inkscape:collect="always"
       xlink:href="#linearGradient3767"
       id="linearGradient3773"
       x1="17.280389"
       y1="157.85683"
       x2="155.09723"
       y2="157.85683"
       gradientUnits="userSpaceOnUse" />
    <linearGradient
       inkscape:collect="always"
       xlink:href="#linearGradient3775"
       id="linearGradient3781"
       x1="89.408005"
       y1="64.731887"
       x2="153.14357"
       y2="64.731887"
       gradientUnits="userSpaceOnUse" />
    <linearGradient
       inkscape:collect="always"
       xlink:href="#linearGradient3783"
       id="linearGradient3789"
       x1="19.083213"
       y1="64.419438"
       x2="82.12169"
       y2="64.419438"
       gradientUnits="userSpaceOnUse" />
  </defs>
  <sodipodi:namedview
     pagecolor="#ffffff"
     bordercolor="#666666"
     borderopacity="1"
     objecttolerance="10"
     gridtolerance="10"
     guidetolerance="10"
     inkscape:pageopacity="0"
     inkscape:pageshadow="2"
     inkscape:window-width="1280"
     inkscape:window-height="744"
     id="namedview3942"
     showgrid="false"
     inkscape:zoom="2.4633028"
     inkscape:cx="87.499998"
     inkscape:cy="109"
     inkscape:window-x="0"
     inkscape:window-y="27"
     inkscape:window-maximized="1"
     inkscape:current-layer="svg3940" />
  <path
     style="fill:url(#linearGradient3773);fill-opacity:1;stroke:none"
     d="M 77.026255,209.1443 C 65.29421,207.52296 51.413939,199.13623 41.529024,187.69618 29.624202,173.91844 21.71958,155.18466 19.012225,134.33184 c -0.333367,-2.56769 -0.796462,-8.23082 -1.029101,-12.58473 -0.232638,-4.35391 -0.519556,-9.606 -0.637595,-11.67132 -0.11804,-2.06532 -0.07115,-3.75512 0.104187,-3.75512 0.175343,0 2.690902,0.5325 5.590131,1.18334 17.677826,3.96843 34.643033,5.46389 62.308568,5.49242 19.319795,0.0199 25.136365,-0.25482 38.769085,-1.83115 8.51636,-0.98474 12.45236,-1.65092 20.47761,-3.46587 7.25077,-1.6398 9.29429,-1.6725 10.05533,-0.16086 0.92952,1.84628 0.3414,14.91368 -1.14194,25.37244 -2.85599,20.13714 -10.34624,38.69485 -21.05509,52.16573 -9.97574,12.54868 -23.78947,21.54155 -36.501747,23.76299 -3.179357,0.55559 -15.656187,0.75639 -18.925408,0.30459 z"
     id="path3765"
     inkscape:connector-curvature="0" />
  <path
     style="fill:url(#linearGradient3789);stroke:none;fill-opacity:1"
     d="M 66.633704,106.28063 C 53.855209,105.57159 37.678015,103.63019 28.270576,101.67675 19.269499,99.807687 19.05462,99.667741 19.085163,95.694502 19.150831,87.152049 26.608255,66.627503 33.735716,55.372813 41.585304,42.97784 50.92745,33.995506 61.762196,28.42577 c 5.417576,-2.784973 8.656991,-3.998381 14.733422,-5.51879 5.532401,-1.384284 5.565337,-1.364222 5.562264,3.387981 -0.0032,5.167524 -0.425372,6.283683 -3.029758,8.012899 -6.690984,4.442565 -10.570466,17.085562 -9.178368,29.911746 0.853046,7.859578 2.763806,12.022468 7.760889,16.908303 1.725817,1.687397 3.387302,3.524699 3.692186,4.082892 0.415917,0.761474 0.587361,3.574473 0.686598,11.265363 l 0.132261,10.250466 -4.80079,-0.0597 c -2.640434,-0.0328 -7.449673,-0.20667 -10.687196,-0.38631 z M 39.744749,95.156797 c 4.063828,-2.344413 7.483302,-4.262569 7.59883,-4.262569 0.115528,0 0.210051,1.731995 0.210051,3.848877 0,3.783497 0.01752,3.853273 1.031577,4.107785 0.826015,0.207316 2.521708,-0.600096 8.509529,-4.051856 4.112875,-2.370923 7.576319,-4.310765 7.696543,-4.310765 0.120225,0 0.218589,1.640654 0.218589,3.645897 0,3.555414 0.02533,3.652251 1.020171,3.901944 2.129771,0.534539 2.253718,0.007 2.134078,-9.082704 -0.09758,-7.413493 -0.187216,-8.372312 -0.819985,-8.77113 -0.517065,-0.325896 -0.90379,-0.326168 -1.420856,-8.12e-4 -0.56937,0.358068 -0.733617,1.136616 -0.827215,3.921024 l -0.116782,3.474246 -7.731934,-4.466202 C 47.37989,77.411017 47.55363,77.402951 47.55363,83.560562 l 0,4.423674 -7.731463,-4.470839 c -6.068379,-3.509138 -7.94585,-4.417037 -8.728119,-4.220699 l -0.996656,0.250144 0,9.701454 c 0,10.010702 0.0078,10.059068 1.636738,10.143021 0.342012,0.01762 3.94679,-1.886106 8.010619,-4.23052 l 0,0 z"
     id="path2989"
     inkscape:connector-curvature="0" />
  <path
     style="fill:url(#linearGradient3781);fill-opacity:1;stroke:none"
     d="m 89.410269,97.899854 c 0.0013,-5.385777 0.18586,-9.899647 0.442516,-10.824036 0.313869,-1.13045 1.526866,-2.721152 4.225443,-5.541171 5.273908,-5.511251 7.262382,-9.807974 8.349912,-18.042654 1.18299,-8.957449 -1.00629,-18.831346 -5.546828,-25.016795 -0.799624,-1.089306 -2.521416,-2.819275 -3.826204,-3.844375 -3.167118,-2.488229 -3.828269,-3.93564 -3.48497,-7.629403 0.146227,-1.573343 0.554142,-3.300588 0.906478,-3.838321 0.589589,-0.899826 0.81856,-0.956783 2.874824,-0.715109 2.545226,0.299141 11.12772,3.003063 14.89017,4.691157 12.81694,5.750571 25.81251,19.192668 34.04617,35.215981 3.57827,6.963583 5.622,12.228113 7.9941,20.592403 2.22422,7.842832 2.86169,10.882507 2.86169,13.645545 l 0,1.896097 -2.9432,0.853772 c -6.11306,1.773295 -20.73262,4.452335 -30.14246,5.523615 -2.90261,0.33045 -9.75316,0.88256 -15.22346,1.22692 -5.4703,0.34435 -11.179098,0.7203 -12.686221,0.83543 l -2.740224,0.20935 0.0023,-9.238406 -2e-6,0 z"
     id="path3763"
     inkscape:connector-curvature="0" />
  <path
     style="fill:#616161;fill-opacity:1;stroke:none;stroke-opacity:1"
     d="M 74.869723,215.49522 C 49.397308,210.04301 29.665897,191.36513 17.862186,161.53152 9.7220788,140.95759 7.3797978,109.31075 12.432157,88.165668 20.265891,55.379971 38.675203,30.46832 62.69071,20.155329 c 8.891406,-3.81824 10.302794,-4.068784 23.004802,-4.08373 12.450055,-0.01464 14.266775,0.285545 22.717378,3.753798 17.28598,7.094422 34.24174,24.415611 42.86362,43.787423 7.00023,15.728232 9.60264,27.10814 10.46374,45.75629 1.18615,25.68783 -2.67392,44.55748 -13.08064,63.94361 -13.25122,24.68504 -31.25302,38.89221 -54.020403,42.63338 -8.853729,1.45486 -11.105951,1.40349 -19.769484,-0.45088 z m 32.011757,-9.79103 c 26.98109,-11.51022 45.90683,-44.74271 48.07382,-84.41482 0.95665,-17.51382 1.53729,-16.69202 -9.81065,-13.88541 -31.47916,7.78552 -91.432387,7.54727 -123.7833,-0.4919 l -4.368668,-1.0856 0.766746,17.25818 c 1.563043,35.18147 16.624256,64.78674 40.194999,79.00981 10.138191,6.11759 17.508172,8.02093 29.800303,7.69607 8.366645,-0.22111 11.771457,-0.94853 19.12675,-4.08633 z M 82.312453,95.904302 c 0,-10.977703 -0.01842,-11.037649 -4.615038,-15.020457 -5.744241,-4.97718 -8.056352,-11.753799 -7.97085,-23.361951 0.07408,-10.057288 4.601909,-20.84487 9.751408,-23.232784 2.295086,-1.064272 2.83448,-2.426434 2.83448,-7.158084 0,-5.784109 -0.03794,-5.83566 -3.721365,-5.056394 C 58.77553,26.266816 43.270755,38.157401 31.772654,57.979606 25.469502,68.845957 18.710942,88.458049 18.710942,95.882283 c 0,3.503776 0.513641,4.023228 5.074588,5.132017 11.700042,2.84432 33.776882,5.43831 48.716052,5.72404 l 9.810871,0.18765 0,-11.021688 z m 42.937917,8.610538 c 12.33293,-1.84431 26.64471,-4.838177 27.91553,-5.839607 1.63844,-1.291134 -2.58813,-18.387859 -7.32734,-29.639576 C 137.26402,48.678256 122.36127,32.440978 106.40202,26.067622 101.7119,24.194613 96.047673,22.49478 93.814854,22.290214 c -3.895586,-0.356903 -4.076646,-0.167746 -4.479659,4.679984 -0.355106,4.271474 0.1211,5.420702 3.082508,7.439085 12.916687,8.803506 13.716667,36.554934 1.362343,47.259517 -4.683672,4.058235 -4.701475,4.114421 -4.701475,14.838117 l 0,10.764463 14.181929,-0.79445 c 7.80005,-0.43694 17.6955,-1.31989 21.98987,-1.96209 z M 92.78419,71.949138 c 3.041571,-6.163396 2.896357,-20.981647 -0.26514,-27.056385 -2.452442,-4.712307 -6.090556,-6.866174 -8.982171,-5.317701 -3.556932,1.904753 -6.578296,10.60274 -6.607601,19.022142 -0.06194,17.795398 9.633041,25.959863 15.854912,13.351944 z"
     id="path3950"
     inkscape:connector-curvature="0" />
  <g
     id="g4586"
     transform="translate(-69.013034,2.8417131)"
     style="stroke:#000000;stroke-opacity:1;fill:#ffffff;fill-opacity:1">
    <path
       transform="translate(1.6238361,17.456238)"
       inkscape:transform-center-x="-2.4547098"
       d="m 113.74435,69.013039 -14.728263,8.503364 0,-17.006728 z"
       inkscape:randomized="0"
       inkscape:rounded="0"
       inkscape:flatsided="true"
       sodipodi:arg2="1.0471976"
       sodipodi:arg1="0"
       sodipodi:r2="4.9094195"
       sodipodi:r1="9.8188391"
       sodipodi:cy="69.013039"
       sodipodi:cx="103.92551"
       sodipodi:sides="3"
       id="path4489"
       style="fill:#ffffff;stroke:#000000;stroke-width:3;stroke-linecap:round;stroke-linejoin:round;stroke-miterlimit:4;stroke-opacity:1;stroke-dasharray:none;stroke-dashoffset:0;fill-opacity:1"
       sodipodi:type="star" />
    <path
       transform="translate(19.061124,17.050276)"
       inkscape:transform-center-x="-2.4547098"
       d="m 113.74435,69.013039 -14.728263,8.503364 0,-17.006728 z"
       inkscape:randomized="0"
       inkscape:rounded="0"
       inkscape:flatsided="true"
       sodipodi:arg2="1.0471976"
       sodipodi:arg1="0"
       sodipodi:r2="4.9094195"
       sodipodi:r1="9.8188391"
       sodipodi:cy="69.013039"
       sodipodi:cx="103.92551"
       sodipodi:sides="3"
       id="path4489-0"
       style="fill:#ffffff;stroke:#000000;stroke-width:3;stroke-linecap:round;stroke-linejoin:round;stroke-miterlimit:4;stroke-opacity:1;stroke-dasharray:none;stroke-dashoffset:0;fill-opacity:1"
       sodipodi:type="star" />
    <path
       inkscape:connector-curvature="0"
       id="path4509"
       d="m 135.59032,78.756052 0,15.020484"
       style="fill:#ffffff;stroke:#000000;stroke-width:3;stroke-linecap:round;stroke-linejoin:miter;stroke-miterlimit:4;stroke-opacity:1;stroke-dasharray:none;fill-opacity:1" />
  </g>
  <path
     style="fill:none;stroke:#444444;stroke-width:3.97054625;stroke-linecap:round;stroke-linejoin:round;stroke-miterlimit:4;stroke-opacity:1;stroke-dasharray:none"
     d="M 84.048246,15.44117 C 80.791868,12.164137 76.688286,9.7361396 72.248356,8.4594403 67.808425,7.1827411 63.041925,7.0601516 58.542237,8.1069331 52.091856,9.6075126 46.323206,13.420546 39.811262,14.626255 33.006874,15.886111 25.69111,14.054368 20.283224,9.7367635"
     id="path4650"
     inkscape:path-effect="#path-effect4652"
     inkscape:original-d="m 84.048246,15.44117 c 0,0 -17.795118,-7.5469582 -25.506009,-7.3342369 C 50.831346,8.3196545 46.453451,14.327434 39.811262,14.626255 33.169074,14.925076 20.283224,9.7367635 20.283224,9.7367635"
     inkscape:connector-curvature="0"
     sodipodi:nodetypes="czzc" />
  <path
     style="fill:#ff0000;fill-opacity:1;stroke:#ff0000;stroke-width:3.7493577;stroke-linecap:round;stroke-linejoin:round;stroke-miterlimit:4;stroke-opacity:1;stroke-dasharray:none"
     d="m 115.07064,93.259756 c -5.34674,-4.857464 -6.22935,-6.14346 -6.22935,-9.076365 0,-6.428941 6.44297,-11.631731 10.4716,-7.206225 2.50071,2.747081 2.54765,2.933122 5.39334,-0.154226 3.948,-4.283245 10.24373,0.797452 10.42554,7.075183 0.0946,3.264927 -0.53272,4.18963 -6.32413,9.322692 -3.53601,3.134043 -6.67177,5.698261 -6.96837,5.698261 -0.2966,0 -3.34247,-2.546691 -6.76863,-5.659312 z"
     id="path2987"
     inkscape:connector-curvature="0"
     sodipodi:nodetypes="ssssssss" />
</svg>
